{
    "asset" : {
        "generator" : "Khronos glTF Blender I/O v3.4.50",
        "version" : "2.0"
    },
    "scene" : 0,
    "scenes" : [
        {
            "name" : "Scene",
            "nodes" : [
                0
            ]
        }
    ],
    "nodes" : [
        {
            "mesh" : 0,
            "name" : "Block_0",
            "rotation" : [
                0.5,
                0.5,
                -0.5,
                0.5
            ],
            "scale" : [
                0.23522399365901947,
                0.23522399365901947,
                0.23522399365901947
            ],
            "translation" : [
                -0.059982120990753174,
                3.3912835121154785,
                -1.1057052612304688
            ]
        }
    ],
    "materials" : [
        {
            "doubleSided" : true,
            "name" : "[0010_Snow]",
            "pbrMetallicRoughness" : {
                "baseColorFactor" : [
                    1,
                    0.9573695659637451,
                    0.9573695659637451,
                    1
                ],
                "metallicFactor" : 0,
                "roughnessFactor" : 0.4000000059604645
            }
        },
        {
            "doubleSided" : true,
            "name" : "[0098_DodgerBlue]",
            "pbrMetallicRoughness" : {
                "baseColorFactor" : [
                    0.18354900181293488,
                    0.6387794613838196,
                    0.8277257680892944,
                    1
                ],
                "metallicFactor" : 0,
                "roughnessFactor" : 0.4000000059604645
            }
        }
    ],
    "meshes" : [
        {
            "name" : "Block_0",
            "primitives" : [
                {
                    "attributes" : {
                        "POSITION" : 0,
                        "NORMAL" : 1
                    },
                    "indices" : 2,
                    "material" : 0
                },
                {
                    "attributes" : {
                        "POSITION" : 3,
                        "NORMAL" : 4
                    },
                    "indices" : 5,
                    "material" : 1
                }
            ]
        }
    ],
    "accessors" : [
        {
            "bufferView" : 0,
            "componentType" : 5126,
            "count" : 8112,
            "max" : [
                32.88719177246094,
                1.0549999475479126,
                14.417250633239746
            ],
            "min" : [
                -4.700648307800293,
                0.2549999952316284,
                -2.058051347732544
            ],
            "type" : "VEC3"
        },
        {
            "bufferView" : 1,
            "componentType" : 5126,
            "count" : 8112,
            "type" : "VEC3"
        },
        {
            "bufferView" : 2,
            "componentType" : 5123,
            "count" : 10770,
            "type" : "SCALAR"
        },
        {
            "bufferView" : 3,
            "componentType" : 5126,
            "count" : 213,
            "max" : [
                32.88719177246094,
                1.0549999475479126,
                12.766932487487793
            ],
            "min" : [
                9.873662948608398,
                0.2549999952316284,
                2.9254567623138428
            ],
            "type" : "VEC3"
        },
        {
            "bufferView" : 4,
            "componentType" : 5126,
            "count" : 213,
            "type" : "VEC3"
        },
        {
            "bufferView" : 5,
            "componentType" : 5123,
            "count" : 285,
            "type" : "SCALAR"
        }
    ],
    "bufferViews" : [
        {
            "buffer" : 0,
            "byteLength" : 97344,
            "byteOffset" : 0,
            "target" : 34962
        },
        {
            "buffer" : 0,
            "byteLength" : 97344,
            "byteOffset" : 97344,
            "target" : 34962
        },
        {
            "buffer" : 0,
            "byteLength" : 21540,
            "byteOffset" : 194688,
            "target" : 34963
        },
        {
            "buffer" : 0,
            "byteLength" : 2556,
            "byteOffset" : 216228,
            "target" : 34962
        },
        {
            "buffer" : 0,
            "byteLength" : 2556,
            "byteOffset" : 218784,
            "target" : 34962
        },
        {
            "buffer" : 0,
            "byteLength" : 570,
            "byteOffset" : 221340,
            "target" : 34963
        }
    ],
    "buffers" : [
        {
            "byteLength" : 221912,
            "uri" : "data:application/octet-stream;base64,"
        }
    ]
}
